{
    "asset" : {
        "generator" : "Khronos glTF Blender I/O v1.3.48",
        "version" : "2.0"
    },
    "scene" : 0,
    "scenes" : [
        {
            "name" : "Scene",
            "nodes" : [
                5
            ]
        }
    ],
    "nodes" : [
        {
            "mesh" : 0,
            "name" : "MoneyBag_MoneyBag_0",
            "scale" : [
                0.006473482586443424,
                0.006473482120782137,
                0.006473482120782137
            ],
            "translation" : [
                0.006938515696674585,
                -0.0060580517165362835,
                0.3263607919216156
            ]
        },
        {
            "children" : [
                0
            ],
            "name" : "MoneyBag",
            "rotation" : [
                -0.7071068286895752,
                0,
                0,
                0.7071068286895752
            ]
        },
        {
            "children" : [
                1
            ],
            "name" : "RootNode"
        },
        {
            "children" : [
                2
            ],
            "name" : "16b4d89165be4325976a2b52edeba969.fbx",
            "rotation" : [
                0.7071068286895752,
                0,
                0,
                0.7071068286895752
            ]
        },
        {
            "children" : [
                3
            ],
            "name" : "RootNode (model correction matrix)"
        },
        {
            "children" : [
                4
            ],
            "name" : "RootNode (gltf orientation matrix)",
            "rotation" : [
                -0.7071068286895752,
                0,
                0,
                0.7071068286895752
            ]
        }
    ],
    "materials" : [
        {
            "doubleSided" : true,
            "emissiveFactor" : [
                0,
                0,
                0
            ],
            "name" : "MoneyBag.005",
            "normalTexture" : {
                "index" : 0,
                "texCoord" : 0
            },
            "pbrMetallicRoughness" : {
                "baseColorTexture" : {
                    "index" : 1,
                    "texCoord" : 0
                },
                "metallicRoughnessTexture" : {
                    "index" : 2,
                    "texCoord" : 0
                }
            }
        }
    ],
    "meshes" : [
        {
            "name" : "MoneyBag_MoneyBag_0.005",
            "primitives" : [
                {
                    "attributes" : {
                        "POSITION" : 0,
                        "NORMAL" : 1,
                        "TEXCOORD_0" : 2,
                        "TEXCOORD_1" : 3,
                        "TEXCOORD_2" : 4
                    },
                    "indices" : 5,
                    "material" : 0
                }
            ]
        }
    ],
    "textures" : [
        {
            "source" : 0
        },
        {
            "source" : 1
        },
        {
            "source" : 2
        }
    ],
    "images" : [
        {
            "mimeType" : "image/png",
            "name" : "MoneyBag_normal",
            "uri" : "MoneyBag_normal.png"
        },
        {
            "mimeType" : "image/png",
            "name" : "MoneyBag_baseColor",
            "uri" : "MoneyBag_baseColor.png"
        },
        {
            "mimeType" : "image/png",
            "name" : "MoneyBag_metallicRoughness",
            "uri" : "MoneyBag_metallicRoughness.png"
        }
    ],
    "accessors" : [
        {
            "bufferView" : 0,
            "componentType" : 5126,
            "count" : 591,
            "max" : [
                33.87583541870117,
                31.288394927978516,
                46.15625
            ],
            "min" : [
                -36.02423095703125,
                -29.09143829345703,
                -50.83404541015625
            ],
            "type" : "VEC3"
        },
        {
            "bufferView" : 1,
            "componentType" : 5126,
            "count" : 591,
            "type" : "VEC3"
        },
        {
            "bufferView" : 2,
            "componentType" : 5126,
            "count" : 591,
            "type" : "VEC2"
        },
        {
            "bufferView" : 3,
            "componentType" : 5126,
            "count" : 591,
            "type" : "VEC2"
        },
        {
            "bufferView" : 4,
            "componentType" : 5126,
            "count" : 591,
            "type" : "VEC2"
        },
        {
            "bufferView" : 5,
            "componentType" : 5123,
            "count" : 2892,
            "type" : "SCALAR"
        }
    ],
    "bufferViews" : [
        {
            "buffer" : 0,
            "byteLength" : 7092,
            "byteOffset" : 0
        },
        {
            "buffer" : 0,
            "byteLength" : 7092,
            "byteOffset" : 7092
        },
        {
            "buffer" : 0,
            "byteLength" : 4728,
            "byteOffset" : 14184
        },
        {
            "buffer" : 0,
            "byteLength" : 4728,
            "byteOffset" : 18912
        },
        {
            "buffer" : 0,
            "byteLength" : 4728,
            "byteOffset" : 23640
        },
        {
            "buffer" : 0,
            "byteLength" : 5784,
            "byteOffset" : 28368
        }
    ],
    "buffers" : [
        {
            "byteLength" : 34152,
            "uri" : "moneybag_3.bin"
        }
    ]
}
